<svg id="Capa_1" enable-background="new 0 0 512 512" height="512" viewBox="0 0 512 512" width="512" xmlns="http://www.w3.org/2000/svg"><g><g><path d="m355.154 229.672c-1.939 8.449-6.639 16.012-13.356 21.492l-19.919 16.251c-3.933 3.209-6.215 8.015-6.215 13.091v71.107h-147.9v-82.647c0-3.243-.679-6.45-1.994-9.415l-9.927-22.383c-3.587-8.088-5.44-16.837-5.439-25.685l.006-103.64h183.643v58.142h.362l26.473-33.852c6.574-8.468 17.109-13.743 27.839-13.765 7.875-.097 15.834 2.377 22.52 7.606 4.768 3.728 5.61 10.616 1.882 15.384l-48.02 61.403c-3.522 4.503-6.01 9.726-7.289 15.298z" fill="#ffcbbe"/></g><g><g><path d="m411.247 125.973c-6.686-5.229-14.646-7.703-22.52-7.606-6.869.014-13.652 2.189-19.373 5.968.773.514 1.535 1.056 2.279 1.637 4.768 3.728 5.61 10.616 1.882 15.384l-48.02 61.403c-3.522 4.503-6.01 9.726-7.29 15.298l-2.666 11.613c-1.939 8.449-6.639 16.012-13.356 21.492l-19.919 16.251c-3.933 3.209-6.215 8.015-6.215 13.091v71.107h39.614v-71.107c0-5.076 2.282-9.883 6.215-13.091l19.919-16.251c6.717-5.48 11.417-13.042 13.356-21.492l2.666-11.613c1.279-5.572 3.768-10.795 7.29-15.298l48.02-61.403c3.728-4.767 2.886-11.654-1.882-15.383z" fill="#eaac9d"/></g></g><g><path d="m503.317 235.399-169.317-128.761v44.837l7.218 12.241c.978 1.658-.731 3.602-2.501 2.844l-239.539-102.603c-2.47-1.058-4.973 1.428-3.931 3.905l26.746 63.61c.984 2.341-1.215 4.765-3.64 4.012l-106.99-33.194c-3.287-1.02-5.409 3.411-2.554 5.333l161.95 109.03c2.446 1.646 5.545-.868 4.438-3.601l-24.015-59.296c-.999-2.468 1.484-4.912 3.935-3.873l247.945 104.999c2.451 1.038 4.934-1.406 3.935-3.873l-21.739-53.676c-.999-2.468 1.483-4.912 3.935-3.873l111.151 47.07c3.236 1.371 5.771-3.002 2.973-5.131z" fill="#b1e4f9"/></g><g><path d="m503.317 235.399-32.389-24.631c-.168-.042-.337-.09-.51-.164l-111.151-47.07c-2.451-1.038-4.934 1.406-3.935 3.873l21.739 53.676c.999 2.468-1.483 4.912-3.935 3.873l-247.909-104.982c-2.48-1.05-4.998 1.41-4.004 3.914l32.154 81.064 17.382 11.702c2.446 1.646 5.545-.868 4.438-3.601l-24.015-59.296c-.999-2.468 1.484-4.912 3.935-3.873l247.945 104.999c2.451 1.038 4.934-1.406 3.935-3.873l-21.739-53.676c-.999-2.468 1.483-4.912 3.935-3.873l111.151 47.07c3.236 1.37 5.771-3.003 2.973-5.132z" fill="#90d8f9"/></g><g><path d="m299.442 68.792h23.308c6.242 0 11.302 5.06 11.302 11.302v47.146c0 12.678-10.278 22.956-22.956 22.956-12.678 0-22.956-10.278-22.956-22.956v-47.146c0-6.242 5.06-11.302 11.302-11.302z" fill="#ffcbbe"/></g><g><path d="m253.53 56.44h23.308c6.242 0 11.302 5.06 11.302 11.302v65.061c0 12.678-10.278 22.956-22.956 22.956-12.678 0-22.956-10.278-22.956-22.956v-65.061c0-6.242 5.06-11.302 11.302-11.302z" fill="#ffcbbe"/></g><g><path d="m207.617 56.44h23.308c6.242 0 11.302 5.06 11.302 11.302v70.975c0 12.678-10.278 22.956-22.956 22.956-12.678 0-22.956-10.278-22.956-22.956v-70.975c0-6.242 5.06-11.302 11.302-11.302z" fill="#ffcbbe"/></g><g><path d="m161.705 68.792h23.308c6.242 0 11.302 5.06 11.302 11.302v47.146c0 12.678-10.278 22.956-22.956 22.956-12.678 0-22.956-10.278-22.956-22.956v-47.146c0-6.242 5.06-11.302 11.302-11.302z" fill="#ffcbbe"/></g><g><path d="m322.75 68.792h-16.87c6.242 0 11.302 5.06 11.302 11.302v47.146c0 9.699-6.018 17.987-14.521 21.35 2.612 1.033 5.456 1.607 8.435 1.607 12.678 0 22.956-10.278 22.956-22.956v-47.147c0-6.242-5.06-11.302-11.302-11.302z" fill="#eaac9d"/></g><g><path d="m276.838 56.44h-16.87c6.242 0 11.302 5.06 11.302 11.302v65.061c0 9.699-6.018 17.987-14.521 21.35 2.612 1.033 5.456 1.607 8.435 1.607 12.678 0 22.956-10.278 22.956-22.956v-65.062c0-6.242-5.06-11.302-11.302-11.302z" fill="#eaac9d"/></g><g><path d="m230.925 56.44h-16.87c6.242 0 11.302 5.06 11.302 11.302v70.975c0 9.699-6.018 17.987-14.521 21.349 2.612 1.033 5.456 1.607 8.435 1.607 12.678 0 22.956-10.278 22.956-22.956v-70.975c.001-6.242-5.06-11.302-11.302-11.302z" fill="#eaac9d"/></g><g><path d="m185.013 68.792h-16.87c6.242 0 11.302 5.06 11.302 11.302v47.146c0 9.699-6.018 17.987-14.521 21.35 2.612 1.033 5.456 1.607 8.435 1.607 12.678 0 22.956-10.278 22.956-22.956v-47.147c0-6.242-5.06-11.302-11.302-11.302z" fill="#eaac9d"/></g><g><path d="m315.578 291.859h-147.814v73.703c0 5.523 4.477 10 10 10h127.814c5.523 0 10-4.477 10-10z" fill="#5e54ac"/></g><g><path d="m276.049 375.562h29.696c5.431 0 9.833-4.402 9.833-9.833v-73.87h-39.529z" fill="#524798"/></g><g><path d="m245.784 454.04 70.725-71.558c1.931-1.953 2.288-4.968.869-7.319l-24.88-41.209c-1.448-2.399-4.046-3.865-6.849-3.865h-86.844c-2.802 0-5.4 1.466-6.849 3.865l-24.88 41.209c-1.419 2.351-1.061 5.366.869 7.319l70.725 71.558c1.959 1.98 5.156 1.98 7.114 0z" fill="#ffe07d"/></g><g><path d="m317.418 375.229-12.243-20.278-82.22 83.188 15.775 15.961c1.925 1.947 5.069 1.947 6.994 0l70.839-71.673c1.899-1.922 2.251-4.886.855-7.198z" fill="#ffd064"/></g><g><path d="m507.839 229.452-96.644-73.495 7.819-9.997c6.26-8.005 4.84-19.611-3.165-25.872-7.734-6.048-17.394-9.291-27.139-9.192-9.011.018-18.075 3.116-25.463 8.597l-21.724-16.52v-22.88c0-10.352-8.422-18.774-18.774-18.774h-23.308c-1.645 0-3.233.234-4.754.633-2.447-7.526-9.519-12.985-17.85-12.985h-23.307c-4.246 0-8.154 1.433-11.302 3.819-3.149-2.386-7.057-3.819-11.302-3.819h-23.308c-8.331 0-15.403 5.459-17.85 12.985-1.521-.399-3.109-.633-4.754-.633h-23.308c-8.545 0-15.761 5.745-18.025 13.571l-41.56-17.802c-3.941-1.688-8.45-.826-11.49 2.194-3.041 3.02-3.932 7.524-2.271 11.475l23.016 54.738-97.799-30.34c-5.001-1.549-10.272.75-12.533 5.472-2.262 4.722-.751 10.271 3.592 13.194l42.165 28.388c7.92 5.536 16.486-7.093 8.345-12.396l-16.847-11.343 77.839 24.15c3.928 1.219 8.084.084 10.847-2.962s3.489-7.292 1.895-11.082l-22.445-53.383 36.497 15.633.004 58.812c0 2.602.335 4.213 1.32 6.924l18.511 45.704-78.285-52.704c-3.423-2.304-8.066-1.397-10.371 2.026-2.304 3.423-1.398 8.066 2.026 10.371l66.796 44.969v4.555c0 9.955 2.045 19.616 6.081 28.714l9.927 22.383c.897 2.024 1.353 4.173 1.353 6.386v96.763c0 1.709.251 3.389.735 4.996l-.388.642c-3.168 5.246-2.371 11.954 1.936 16.311l70.84 71.674c2.346 2.373 5.474 3.679 8.811 3.679s6.465-1.307 8.811-3.68l9.213-9.322c2.901-2.935 2.873-7.666-.062-10.566-2.935-2.901-7.666-2.872-10.566.062l-7.395 7.483-68.162-68.965 24.327-40.293c.071-.118.2-.191.338-.191h86.995c.138 0 .267.073.339.191l24.326 40.293-36.299 36.727c-2.901 2.935-2.873 7.665.062 10.566 2.935 2.9 7.664 2.872 10.566-.062l37.158-37.596c4.308-4.357 5.105-11.065 1.937-16.312l-1.173-1.942c.265-1.212.408-2.452.408-3.697l.085-85.222c0-2.843 1.264-5.504 3.467-7.302l19.919-16.251c4.5-3.671 8.252-8.169 11.092-13.204l42.535 18.012c1.324.561 2.713.833 4.089.833 2.688 0 5.326-1.041 7.328-3.011 3.026-2.978 3.95-7.446 2.357-11.381l-17.676-43.644 101.184 42.849c4.924 2.087 10.446.241 13.128-4.386 2.68-4.623 1.537-10.331-2.72-13.568zm-119.02-103.613c6.5-.093 12.686 2.001 17.825 6.021 1.515 1.184 1.784 3.381.599 4.895l-7.943 10.156-23.392-17.789c4-2.111 8.456-3.274 12.911-3.283zm-89.377-49.576h23.308c2.112 0 3.831 1.719 3.831 3.831l-.052 48.174c-.533 8.059-7.241 14.457-15.433 14.457-8.538 0-15.485-6.946-15.485-15.485v-47.146c.001-2.112 1.719-3.831 3.831-3.831zm-45.912-12.351h23.308c2.112 0 3.831 1.719 3.831 3.831v65.061c0 8.538-6.946 15.485-15.485 15.485-8.538 0-15.485-6.946-15.485-15.485v-65.062c0-2.112 1.719-3.83 3.831-3.83zm-49.743 3.83c0-2.112 1.719-3.831 3.831-3.831h23.308c2.112 0 3.831 1.719 3.831 3.831v70.975c0 8.538-6.946 15.485-15.485 15.485s-15.485-6.946-15.485-15.485zm-12.11 83.775c1.385 2.975 3.237 5.687 5.462 8.048l-11.072-4.689c1.994-.92 3.875-2.047 5.61-3.359zm-29.972-75.254h23.308c2.112 0 3.831 1.719 3.831 3.831v47.146c0 8.538-6.946 15.485-15.485 15.485-8.501 0-15.418-6.886-15.479-15.373l-.006-47.258c0-2.112 1.719-3.831 3.831-3.831zm175.369 169.112-19.919 16.251c-5.697 4.647-8.964 11.529-8.964 18.881v3.88h-77.726c-4.126 0-7.472 3.345-7.472 7.472s3.345 7.472 7.472 7.472h77.641v46.02l-9.251-15.322c-2.76-4.571-7.791-7.411-13.131-7.411h-86.994c-5.34 0-10.371 2.84-13.13 7.411l-10.363 17.165v-47.864h17.891c4.126 0 7.472-3.345 7.472-7.472s-3.345-7.472-7.472-7.472h-17.891v-15.421c0-4.314-.887-8.5-2.636-12.444l-9.927-22.384c-2.408-5.428-3.915-11.111-4.508-16.956l8.42 5.669c3.838 2.584 8.835 2.363 12.431-.554 3.595-2.917 4.843-7.759 3.105-12.049l-19.952-49.263 181.566 76.889c-1.803 2.83-4.049 5.37-6.662 7.502zm55.031-58.795c-3.91-1.656-8.391-.801-11.416 2.177-3.026 2.978-3.951 7.445-2.358 11.382l17.676 43.644-176.274-74.648c10.461-.157 19.655-5.616 25.013-13.807 5.405 4.909 12.578 7.904 20.437 7.904 9.058 0 17.199-3.983 22.778-10.284l47.814 20.48c3.77 1.616 8.124.63 10.833-2.45 2.709-3.081 3.129-7.524 1.045-11.057l-6.183-10.485.052-27.69 128.823 97.967z"/><path d="m263.13 349.658c-2.918-2.918-7.649-2.918-10.566 0l-28.798 28.798c-2.137 2.137-2.776 5.35-1.62 8.142 1.157 2.792 3.881 4.612 6.903 4.612h9.27l-15.027 15.027c-6.956 6.757 3.813 17.52 10.566 10.566l27.783-27.782c2.137-2.137 2.776-5.35 1.62-8.142-1.157-2.792-3.881-4.612-6.903-4.612h-9.27l16.044-16.043c2.916-2.917 2.916-7.648-.002-10.566z"/></g></g></svg>